<svg
  viewBox="0 0 800 800"
  fill="none"
  xmlns="http://www.w3.org/2000/svg"
  className="absolute inset-0 w-full h-full opacity-20 blur-lg pointer-events-none select-none"
>
  <defs>
    <radialGradient id="coreGlow" cx="50%" cy="50%" r="50%">
      <stop offset="0%" stopColor="#FFA500" stopOpacity="0.7" />
      <stop offset="100%" stopColor="#000000" stopOpacity="0" />
    </radialGradient>
    <linearGradient id="pipeGradient" x1="0" x2="1" y1="0" y2="1">
      <stop offset="0%" stopColor="#00f0ff" />
      <stop offset="100%" stopColor="#003B46" />
    </linearGradient>
  </defs>

  
  <circle cx="400" cy="400" r="250" fill="url(#coreGlow)" />

  
  <circle cx="400" cy="400" r="100" stroke="#FFA500" strokeWidth="3" fill="none" />
  <circle cx="400" cy="400" r="60" stroke="#00f0ff" strokeWidth="2" fill="none" />
  <circle cx="400" cy="400" r="20" fill="#FFA500" />

  
  <rect x="300" y="300" width="200" height="200" rx="20" ry="20" stroke="#555" strokeWidth="2" fill="#111" opacity="0.6" />

  
  <path
    d="M250 400 H300 M500 400 H550 M400 250 V300 M400 500 V550"
    stroke="url(#pipeGradient)"
    strokeWidth="8"
    strokeLinecap="round"
    strokeLinejoin="round"
  />
  <path
    d="M270 380 C290 390, 290 410, 270 420"
    stroke="url(#pipeGradient)"
    strokeWidth="4"
    fill="none"
  />
  <path
    d="M530 380 C510 390, 510 410, 530 420"
    stroke="url(#pipeGradient)"
    strokeWidth="4"
    fill="none"
  />

  
  <line x1="340" y1="300" x2="340" y2="500" stroke="#333" strokeDasharray="4" />
  <line x1="460" y1="300" x2="460" y2="500" stroke="#333" strokeDasharray="4" />
</svg>
