<svg width="100" height="100" xmlns="http://www.w3.org/2000/svg">
  <rect width="100" height="100" fill="none"/>
  <path d="M10 10h20v20H10zM40 10h20v20H40zM70 10h20v20H70zM10 40h20v20H10zM40 40h20v20H40zM70 40h20v20H70zM10 70h20v20H10zM40 70h20v20H40zM70 70h20v20H70z" 
        stroke="currentColor" 
        stroke-width="1" 
        stroke-opacity="0.1"
        fill="none"/>
  <path d="M20 20h20M50 20h20M20 50h20M50 50h20M20 80h20M50 80h20M30 10v20M60 10v20M30 40v20M60 40v20M30 70v20M60 70v20" 
        stroke="currentColor" 
        stroke-width="1" 
        stroke-opacity="0.1"/>
</svg>